<svg width="20" height="20" viewBox="0 0 20 20" fill="none" xmlns="http://www.w3.org/2000/svg">
<path d="M15 1.66667V3.33334M5 1.66667V3.33334" stroke="#0075FF" stroke-linecap="round" stroke-linejoin="round"/>
<path d="M9.99627 10.8333H10.0037M9.99627 14.1667H10.0037M13.3259 10.8333H13.3333M6.66667 10.8333H6.67415M6.66667 14.1667H6.67415" stroke="#0075FF" stroke-width="2" stroke-linecap="round" stroke-linejoin="round"/>
<path d="M2.91667 6.66667H17.0833" stroke="#0075FF" stroke-width="1.5" stroke-linecap="round" stroke-linejoin="round"/>
<path d="M2.08334 10.2027C2.08334 6.57161 2.08334 4.75607 3.12677 3.62803C4.1702 2.5 5.84958 2.5 9.20834 2.5H10.7917C14.1504 2.5 15.8298 2.5 16.8732 3.62803C17.9167 4.75607 17.9167 6.57161 17.9167 10.2027V10.6306C17.9167 14.2617 17.9167 16.0773 16.8732 17.2053C15.8298 18.3333 14.1504 18.3333 10.7917 18.3333H9.20834C5.84958 18.3333 4.1702 18.3333 3.12677 17.2053C2.08334 16.0773 2.08334 14.2617 2.08334 10.6306V10.2027Z" stroke="#0075FF" stroke-width="1.5" stroke-linecap="round" stroke-linejoin="round"/>
<path d="M2.5 6.66667H17.5" stroke="#0075FF" stroke-width="1.5" stroke-linecap="round" stroke-linejoin="round"/>
</svg>
